<svg xmlns="http://www.w3.org/2000/svg" width="64" height="64" viewBox="0 0 64 64" fill="none">
  <!-- Commercial airliner - top-down view, nose pointing up -->
  <!-- Fuselage -->
  <path d="M32 6 C30 6 29 8 29 12 L29 52 C29 55 30 58 32 58 C34 58 35 55 35 52 L35 12 C35 8 34 6 32 6Z" fill="#e0e0e0" stroke="#aaaaaa" stroke-width="0.8"/>
  <!-- Main wings -->
  <path d="M29 26 L8 34 L8 37 L29 32Z" fill="#d0d0d0" stroke="#aaaaaa" stroke-width="0.6"/>
  <path d="M35 26 L56 34 L56 37 L35 32Z" fill="#d0d0d0" stroke="#aaaaaa" stroke-width="0.6"/>
  <!-- Tail wings -->
  <path d="M30 48 L22 52 L22 54 L30 51Z" fill="#c8c8c8" stroke="#aaaaaa" stroke-width="0.5"/>
  <path d="M34 48 L42 52 L42 54 L34 51Z" fill="#c8c8c8" stroke="#aaaaaa" stroke-width="0.5"/>
  <!-- Engines -->
  <ellipse cx="18" cy="30" rx="2" ry="4" fill="#999999" stroke="#777777" stroke-width="0.5"/>
  <ellipse cx="46" cy="30" rx="2" ry="4" fill="#999999" stroke="#777777" stroke-width="0.5"/>
  <!-- Cockpit -->
  <ellipse cx="32" cy="9" rx="2" ry="3" fill="#446688"/>
</svg>
