<svg xmlns="http://www.w3.org/2000/svg" width="64" height="64" viewBox="0 0 64 64" fill="none">
  <!-- Private / general aviation - small single-engine, top-down -->
  <!-- Fuselage (slim) -->
  <path d="M32 10 C31 10 30.5 11 30.5 14 L30.5 50 C30.5 53 31 54 32 54 C33 54 33.5 53 33.5 50 L33.5 14 C33.5 11 33 10 32 10Z" fill="#f0f0f0" stroke="#cccccc" stroke-width="0.8"/>
  <!-- High wings -->
  <path d="M30.5 26 L12 32 L12 34 L30.5 30Z" fill="#e8e8e8" stroke="#cccccc" stroke-width="0.6"/>
  <path d="M33.5 26 L52 32 L52 34 L33.5 30Z" fill="#e8e8e8" stroke="#cccccc" stroke-width="0.6"/>
  <!-- Tail wings -->
  <path d="M31 46 L25 49 L25 50.5 L31 48Z" fill="#dcdcdc" stroke="#bbbbbb" stroke-width="0.5"/>
  <path d="M33 46 L39 49 L39 50.5 L33 48Z" fill="#dcdcdc" stroke="#bbbbbb" stroke-width="0.5"/>
  <!-- Propeller disc -->
  <ellipse cx="32" cy="11" rx="4" ry="1.5" fill="#aaaaaa" opacity="0.5"/>
  <!-- Cockpit -->
  <ellipse cx="32" cy="16" rx="1.5" ry="2.5" fill="#5588aa"/>
</svg>
